<svg width="21" height="20" viewBox="0 0 21 20" fill="none" xmlns="http://www.w3.org/2000/svg">
    <path d="M17.57 9.41a7.087 7.087 0 0 1-4.161 6.01 2.916 2.916 0 1 1-.31-1.537 5.568 5.568 0 0 0 2.905-4.09 3.734 3.734 0 0 0 1.566-.382zM5.084 3.128a2.917 2.917 0 1 1-.15 5.83v.003c0 1.836.89 3.465 2.26 4.478-.253.476-.402 1-.437 1.537A7.079 7.079 0 0 1 3.435 8.45a2.917 2.917 0 0 1 1.649-5.323zm5.416-1.25a7.05 7.05 0 0 1 4.315 1.466 2.917 2.917 0 1 1-1.248.973 5.531 5.531 0 0 0-3.067-.92 5.54 5.54 0 0 0-2.335.512A3.758 3.758 0 0 0 6.984 2.81a7.048 7.048 0 0 1 3.516-.933z" fill="#000"/>
</svg>
